# xmcd CD database file
#
# Track frame offsets:
#	150
#	3410
#	20842
#	52532
#	90209
#	125148
#	137499
#	152737
#	179575
#	231179
#	248599
#	276347
#
# Disc length: 4103 seconds
#
# Revision: 0
# Processed by: cddbd v1.5.2PL0 Copyright (c) Steve Scherf et al.
# Submitted via: Feurio! 1.68 - http://www.feurio.com
#
DISCID=9510050c
DTITLE=Caroline Aiken - Music Star Dec 15 2007 2
DYEAR=1900
DGENRE=
TTITLE0=Intro
TTITLE1=Running
TTITLE2=Good Enough
TTITLE3=Song For Page
TTITLE4=Sing the Blues
TTITLE5=Ben's Tricks
TTITLE6=Turtle Dove
TTITLE7=Tower of Babel
TTITLE8=We're Having a War
TTITLE9=Rebirth
TTITLE10=Fishin' Blues
TTITLE11=Mission of Angels
EXTD=
EXTT0=
EXTT1=
EXTT2=
EXTT3=
EXTT4=
EXTT5=
EXTT6=
EXTT7=
EXTT8=
EXTT9=
EXTT10=
EXTT11=
PLAYORDER=
